{
	"asset":{
		"generator":"Khronos glTF Blender I/O v4.1.63",
		"version":"2.0"
	},
	"scene":0,
	"scenes":[
		{
			"name":"Scene",
			"nodes":[
				0,
				7
			]
		}
	],
	"nodes":[
		{
			"mesh":0,
			"name":"link_0"
		},
		{
			"mesh":1,
			"name":"link_7",
			"rotation":[
				-0.7031394243240356,
				-0.08218083530664444,
				0.019566187635064125,
				0.7060158848762512
			],
			"translation":[
				0.0014598492998629808,
				-0.001068456214852631,
				-0.08367040008306503
			]
		},
		{
			"children":[
				1
			],
			"mesh":2,
			"name":"link_6",
			"rotation":[
				0.7031394839286804,
				0.08218058198690414,
				-0.019565992057323456,
				0.706015944480896
			],
			"translation":[
				0.009506137110292912,
				0.21921676397323608,
				-0.0032663566526025534
			]
		},
		{
			"children":[
				2
			],
			"mesh":3,
			"name":"link_5",
			"rotation":[
				-0.70710688829422,
				0,
				0,
				0.7071066498756409
			],
			"translation":[
				0.0014309954131022096,
				0,
				-0.17381584644317627
			]
		},
		{
			"children":[
				3
			],
			"mesh":4,
			"name":"link_4",
			"rotation":[
				0.7071069478988647,
				0,
				0,
				0.7071065902709961
			],
			"translation":[
				-0.0014309942489489913,
				0.21400821208953857,
				-0.0027402860578149557
			]
		},
		{
			"children":[
				4
			],
			"mesh":5,
			"name":"link_3",
			"rotation":[
				-0.05547875910997391,
				0.7049270868301392,
				-0.7049269676208496,
				0.05547873303294182
			],
			"translation":[
				-0.0013338244752958417,
				-0.0005310042761266232,
				-0.18741151690483093
			]
		},
		{
			"children":[
				5
			],
			"mesh":6,
			"name":"link_2",
			"rotation":[
				0,
				-0.7071068286895752,
				0.7071068286895752,
				3.341963861203112e-08
			],
			"translation":[
				0.0003015631518792361,
				0.1985316127538681,
				-0.0065885684452950954
			]
		},
		{
			"children":[
				6
			],
			"mesh":7,
			"name":"link_1",
			"rotation":[
				0,
				0.011484981514513493,
				0,
				0.9999341368675232
			],
			"translation":[
				0.005985075142234564,
				0.14195574820041656,
				0.0052864523604512215
			]
		}
	],
	"meshes":[
		{
			"name":"link_0",
			"primitives":[
				{
					"attributes":{
						"POSITION":0,
						"NORMAL":1
					},
					"indices":2
				}
			]
		},
		{
			"name":"link_7",
			"primitives":[
				{
					"attributes":{
						"POSITION":3,
						"NORMAL":4
					},
					"indices":5
				}
			]
		},
		{
			"name":"link_6.002",
			"primitives":[
				{
					"attributes":{
						"POSITION":6,
						"NORMAL":7
					},
					"indices":8
				}
			]
		},
		{
			"name":"link_5",
			"primitives":[
				{
					"attributes":{
						"POSITION":9,
						"NORMAL":10
					},
					"indices":11
				}
			]
		},
		{
			"name":"link_4",
			"primitives":[
				{
					"attributes":{
						"POSITION":12,
						"NORMAL":13
					},
					"indices":14
				}
			]
		},
		{
			"name":"link_3",
			"primitives":[
				{
					"attributes":{
						"POSITION":15,
						"NORMAL":16
					},
					"indices":17
				}
			]
		},
		{
			"name":"link_2",
			"primitives":[
				{
					"attributes":{
						"POSITION":18,
						"NORMAL":19
					},
					"indices":20
				}
			]
		},
		{
			"name":"link_1",
			"primitives":[
				{
					"attributes":{
						"POSITION":21,
						"NORMAL":22
					},
					"indices":23
				}
			]
		}
	],
	"accessors":[
		{
			"bufferView":0,
			"componentType":5126,
			"count":4656,
			"max":[
				0.10375917702913284,
				0.1574999988079071,
				0.1038222685456276
			],
			"min":[
				-0.11299999803304672,
				-4.196050724658562e-07,
				-0.1038222685456276
			],
			"type":"VEC3"
		},
		{
			"bufferView":1,
			"componentType":5126,
			"count":4656,
			"type":"VEC3"
		},
		{
			"bufferView":2,
			"componentType":5123,
			"count":27891,
			"type":"SCALAR"
		},
		{
			"bufferView":3,
			"componentType":5126,
			"count":27164,
			"max":[
				0.051854077726602554,
				0.04500000178813934,
				0.05194195359945297
			],
			"min":[
				-0.051854077726602554,
				-0.00989999994635582,
				-0.05194195359945297
			],
			"type":"VEC3"
		},
		{
			"bufferView":4,
			"componentType":5126,
			"count":27164,
			"type":"VEC3"
		},
		{
			"bufferView":5,
			"componentType":5123,
			"count":34146,
			"type":"SCALAR"
		},
		{
			"bufferView":6,
			"componentType":5126,
			"count":8219,
			"max":[
				0.0661296397447586,
				0.06691377609968185,
				0.0863635241985321
			],
			"min":[
				-0.06612114608287811,
				-0.07069999724626541,
				-0.08089999854564667
			],
			"type":"VEC3"
		},
		{
			"bufferView":7,
			"componentType":5126,
			"count":8219,
			"type":"VEC3"
		},
		{
			"bufferView":8,
			"componentType":5123,
			"count":9852,
			"type":"SCALAR"
		},
		{
			"bufferView":9,
			"componentType":5126,
			"count":2218,
			"max":[
				0.06800000369548798,
				0.2667926549911499,
				0.06800000369548798
			],
			"min":[
				-0.06800000369548798,
				-0.010000001639127731,
				-0.09902028739452362
			],
			"type":"VEC3"
		},
		{
			"bufferView":10,
			"componentType":5126,
			"count":2218,
			"type":"VEC3"
		},
		{
			"bufferView":11,
			"componentType":5123,
			"count":13242,
			"type":"SCALAR"
		},
		{
			"bufferView":12,
			"componentType":5126,
			"count":4376,
			"max":[
				0.06799399852752686,
				0.11440793424844742,
				0.06799810379743576
			],
			"min":[
				-0.06799399852752686,
				-0.06799860298633575,
				-0.18400003015995026
			],
			"type":"VEC3"
		},
		{
			"bufferView":13,
			"componentType":5126,
			"count":4376,
			"type":"VEC3"
		},
		{
			"bufferView":14,
			"componentType":5123,
			"count":25434,
			"type":"SCALAR"
		},
		{
			"bufferView":15,
			"componentType":5126,
			"count":2334,
			"max":[
				0.06800000369548798,
				0.28349369764328003,
				0.06800000369548798
			],
			"min":[
				-0.06800000369548798,
				-0.009999978356063366,
				-0.11459343135356903
			],
			"type":"VEC3"
		},
		{
			"bufferView":16,
			"componentType":5126,
			"count":2334,
			"type":"VEC3"
		},
		{
			"bufferView":17,
			"componentType":5123,
			"count":13860,
			"type":"SCALAR"
		},
		{
			"bufferView":18,
			"componentType":5126,
			"count":4356,
			"max":[
				0.06799399852752686,
				0.11440793424844742,
				0.06799811124801636
			],
			"min":[
				-0.06799399852752686,
				-0.06799860298633575,
				-0.18399998545646667
			],
			"type":"VEC3"
		},
		{
			"bufferView":19,
			"componentType":5126,
			"count":4356,
			"type":"VEC3"
		},
		{
			"bufferView":20,
			"componentType":5123,
			"count":25326,
			"type":"SCALAR"
		},
		{
			"bufferView":21,
			"componentType":5126,
			"count":1961,
			"max":[
				0.061994992196559906,
				0.26591789722442627,
				0.10756491124629974
			],
			"min":[
				-0.07396506518125534,
				0.004924595355987549,
				-0.07501909136772156
			],
			"type":"VEC3"
		},
		{
			"bufferView":22,
			"componentType":5126,
			"count":1961,
			"type":"VEC3"
		},
		{
			"bufferView":23,
			"componentType":5123,
			"count":11616,
			"type":"SCALAR"
		}
	],
	"bufferViews":[
		{
			"buffer":0,
			"byteLength":55872,
			"byteOffset":0,
			"target":34962
		},
		{
			"buffer":0,
			"byteLength":55872,
			"byteOffset":55872,
			"target":34962
		},
		{
			"buffer":0,
			"byteLength":55782,
			"byteOffset":111744,
			"target":34963
		},
		{
			"buffer":0,
			"byteLength":325968,
			"byteOffset":167528,
			"target":34962
		},
		{
			"buffer":0,
			"byteLength":325968,
			"byteOffset":493496,
			"target":34962
		},
		{
			"buffer":0,
			"byteLength":68292,
			"byteOffset":819464,
			"target":34963
		},
		{
			"buffer":0,
			"byteLength":98628,
			"byteOffset":887756,
			"target":34962
		},
		{
			"buffer":0,
			"byteLength":98628,
			"byteOffset":986384,
			"target":34962
		},
		{
			"buffer":0,
			"byteLength":19704,
			"byteOffset":1085012,
			"target":34963
		},
		{
			"buffer":0,
			"byteLength":26616,
			"byteOffset":1104716,
			"target":34962
		},
		{
			"buffer":0,
			"byteLength":26616,
			"byteOffset":1131332,
			"target":34962
		},
		{
			"buffer":0,
			"byteLength":26484,
			"byteOffset":1157948,
			"target":34963
		},
		{
			"buffer":0,
			"byteLength":52512,
			"byteOffset":1184432,
			"target":34962
		},
		{
			"buffer":0,
			"byteLength":52512,
			"byteOffset":1236944,
			"target":34962
		},
		{
			"buffer":0,
			"byteLength":50868,
			"byteOffset":1289456,
			"target":34963
		},
		{
			"buffer":0,
			"byteLength":28008,
			"byteOffset":1340324,
			"target":34962
		},
		{
			"buffer":0,
			"byteLength":28008,
			"byteOffset":1368332,
			"target":34962
		},
		{
			"buffer":0,
			"byteLength":27720,
			"byteOffset":1396340,
			"target":34963
		},
		{
			"buffer":0,
			"byteLength":52272,
			"byteOffset":1424060,
			"target":34962
		},
		{
			"buffer":0,
			"byteLength":52272,
			"byteOffset":1476332,
			"target":34962
		},
		{
			"buffer":0,
			"byteLength":50652,
			"byteOffset":1528604,
			"target":34963
		},
		{
			"buffer":0,
			"byteLength":23532,
			"byteOffset":1579256,
			"target":34962
		},
		{
			"buffer":0,
			"byteLength":23532,
			"byteOffset":1602788,
			"target":34962
		},
		{
			"buffer":0,
			"byteLength":23232,
			"byteOffset":1626320,
			"target":34963
		}
	],
	"buffers":[
		{
			"byteLength":1649552,
			"uri":"kuka_lbr.bin"
		}
	]
}
