{
	"asset":{
		"generator":"Khronos glTF Blender I/O v4.1.63",
		"version":"2.0"
	},
	"scene":0,
	"scenes":[
		{
			"name":"Scene",
			"nodes":[
				0,
				7
			]
		}
	],
	"nodes":[
		{
			"mesh":0,
			"name":"link0"
		},
		{
			"mesh":1,
			"name":"link6",
			"rotation":[
				0,
				0,
				1,
				1.4831312000751495e-07
			],
			"translation":[
				0.002987230196595192,
				0.11165222525596619,
				-0.005607673432677984
			]
		},
		{
			"mesh":2,
			"name":"link60",
			"translation":[
				0.007939469069242477,
				0.01574065163731575,
				-0.005217835307121277
			]
		},
		{
			"children":[
				1,
				2
			],
			"mesh":3,
			"name":"link5",
			"rotation":[
				0.2185080349445343,
				-0.6724985241889954,
				0.6724985241889954,
				0.21850800514221191
			],
			"translation":[
				0.0024809837341308594,
				-0.03488779440522194,
				-0.1700073927640915
			]
		},
		{
			"children":[
				3
			],
			"mesh":4,
			"name":"link4",
			"rotation":[
				0.45922911167144775,
				0.537688136100769,
				-0.5376883149147034,
				0.45922914147377014
			],
			"translation":[
				0.10652311891317368,
				0.45091190934181213,
				0.09312994033098221
			]
		},
		{
			"children":[
				4
			],
			"mesh":5,
			"name":"link3",
			"rotation":[
				-0.7057878375053406,
				-0.0431678481400013,
				-0.0431678406894207,
				0.7057879567146301
			],
			"translation":[
				0.6345257759094238,
				0.03620048239827156,
				-0.02264132909476757
			]
		},
		{
			"children":[
				5
			],
			"mesh":6,
			"name":"link2",
			"rotation":[
				0.7071068286895752,
				0,
				-0.7071068286895752,
				3.125937908521337e-08
			],
			"translation":[
				0.18818269670009613,
				0.12754566967487335,
				-0.06444457918405533
			]
		},
		{
			"children":[
				6
			],
			"mesh":7,
			"name":"link1",
			"rotation":[
				0.7064337730407715,
				-0.03084356151521206,
				0.030843565240502357,
				0.7064337730407715
			],
			"translation":[
				-0.0049189552664756775,
				0.32203513383865356,
				0.0044022612273693085
			]
		}
	],
	"meshes":[
		{
			"name":"link0.001",
			"primitives":[
				{
					"attributes":{
						"POSITION":0,
						"NORMAL":1
					},
					"indices":2
				}
			]
		},
		{
			"name":"link6",
			"primitives":[
				{
					"attributes":{
						"POSITION":3,
						"NORMAL":4
					},
					"indices":5
				}
			]
		},
		{
			"name":"link60",
			"primitives":[
				{
					"attributes":{
						"POSITION":6,
						"NORMAL":7
					},
					"indices":8
				}
			]
		},
		{
			"name":"link5",
			"primitives":[
				{
					"attributes":{
						"POSITION":9,
						"NORMAL":10
					},
					"indices":11
				}
			]
		},
		{
			"name":"link4",
			"primitives":[
				{
					"attributes":{
						"POSITION":12,
						"NORMAL":13
					},
					"indices":14
				}
			]
		},
		{
			"name":"link3.001",
			"primitives":[
				{
					"attributes":{
						"POSITION":15,
						"NORMAL":16
					},
					"indices":17
				}
			]
		},
		{
			"name":"link2",
			"primitives":[
				{
					"attributes":{
						"POSITION":18,
						"NORMAL":19
					},
					"indices":20
				}
			]
		},
		{
			"name":"link1.003",
			"primitives":[
				{
					"attributes":{
						"POSITION":21,
						"NORMAL":22
					},
					"indices":23
				}
			]
		}
	],
	"accessors":[
		{
			"bufferView":0,
			"componentType":5126,
			"count":2742,
			"max":[
				0.16532039642333984,
				0.4884999990463257,
				0.16532039642333984
			],
			"min":[
				-0.39267998933792114,
				-9.406476215079087e-15,
				-0.16532039642333984
			],
			"type":"VEC3"
		},
		{
			"bufferView":1,
			"componentType":5126,
			"count":2742,
			"type":"VEC3"
		},
		{
			"bufferView":2,
			"componentType":5123,
			"count":16548,
			"type":"SCALAR"
		},
		{
			"bufferView":3,
			"componentType":5126,
			"count":908,
			"max":[
				0.02500000037252903,
				0,
				0.024997200816869736
			],
			"min":[
				-0.02500000037252903,
				-0.006200000178068876,
				-0.024997200816869736
			],
			"type":"VEC3"
		},
		{
			"bufferView":4,
			"componentType":5126,
			"count":908,
			"type":"VEC3"
		},
		{
			"bufferView":5,
			"componentType":5123,
			"count":5520,
			"type":"SCALAR"
		},
		{
			"bufferView":6,
			"componentType":5126,
			"count":906,
			"max":[
				0.02500000037252903,
				0.11400000005960464,
				0.024997200816869736
			],
			"min":[
				-0.02500000037252903,
				0.10779999941587448,
				-0.024997200816869736
			],
			"type":"VEC3"
		},
		{
			"bufferView":7,
			"componentType":5126,
			"count":906,
			"type":"VEC3"
		},
		{
			"bufferView":8,
			"componentType":5123,
			"count":5508,
			"type":"SCALAR"
		},
		{
			"bufferView":9,
			"componentType":5126,
			"count":2018,
			"max":[
				0.048499900847673416,
				0.11379999667406082,
				0.0430000014603138
			],
			"min":[
				-0.048499900847673416,
				-0.048500001430511475,
				-0.05800012871623039
			],
			"type":"VEC3"
		},
		{
			"bufferView":10,
			"componentType":5126,
			"count":2018,
			"type":"VEC3"
		},
		{
			"bufferView":11,
			"componentType":5123,
			"count":12096,
			"type":"SCALAR"
		},
		{
			"bufferView":12,
			"componentType":5126,
			"count":1813,
			"max":[
				0.06256049871444702,
				0.07244082540273666,
				0.05533505976200104
			],
			"min":[
				-0.06451582908630371,
				-0.08033038675785065,
				-0.20538051426410675
			],
			"type":"VEC3"
		},
		{
			"bufferView":13,
			"componentType":5126,
			"count":1813,
			"type":"VEC3"
		},
		{
			"bufferView":14,
			"componentType":5123,
			"count":10866,
			"type":"SCALAR"
		},
		{
			"bufferView":15,
			"componentType":5126,
			"count":7446,
			"max":[
				0.17974673211574554,
				0.3985324501991272,
				0.2579016089439392
			],
			"min":[
				-0.09932425618171692,
				-0.29096755385398865,
				-0.04401097446680069
			],
			"type":"VEC3"
		},
		{
			"bufferView":16,
			"componentType":5126,
			"count":7446,
			"type":"VEC3"
		},
		{
			"bufferView":17,
			"componentType":5123,
			"count":44724,
			"type":"SCALAR"
		},
		{
			"bufferView":18,
			"componentType":5126,
			"count":2008,
			"max":[
				0.691152811050415,
				0.03556962311267853,
				0.11630286276340485
			],
			"min":[
				-0.05971659719944,
				-0.13493037223815918,
				-0.09120345860719681
			],
			"type":"VEC3"
		},
		{
			"bufferView":19,
			"componentType":5126,
			"count":2008,
			"type":"VEC3"
		},
		{
			"bufferView":20,
			"componentType":5123,
			"count":12072,
			"type":"SCALAR"
		},
		{
			"bufferView":21,
			"componentType":5126,
			"count":6012,
			"max":[
				0.29470178484916687,
				0.16759774088859558,
				0.13819828629493713
			],
			"min":[
				-0.18804001808166504,
				-0.20290228724479675,
				-0.19430172443389893
			],
			"type":"VEC3"
		},
		{
			"bufferView":22,
			"componentType":5126,
			"count":6012,
			"type":"VEC3"
		},
		{
			"bufferView":23,
			"componentType":5123,
			"count":36096,
			"type":"SCALAR"
		}
	],
	"bufferViews":[
		{
			"buffer":0,
			"byteLength":32904,
			"byteOffset":0,
			"target":34962
		},
		{
			"buffer":0,
			"byteLength":32904,
			"byteOffset":32904,
			"target":34962
		},
		{
			"buffer":0,
			"byteLength":33096,
			"byteOffset":65808,
			"target":34963
		},
		{
			"buffer":0,
			"byteLength":10896,
			"byteOffset":98904,
			"target":34962
		},
		{
			"buffer":0,
			"byteLength":10896,
			"byteOffset":109800,
			"target":34962
		},
		{
			"buffer":0,
			"byteLength":11040,
			"byteOffset":120696,
			"target":34963
		},
		{
			"buffer":0,
			"byteLength":10872,
			"byteOffset":131736,
			"target":34962
		},
		{
			"buffer":0,
			"byteLength":10872,
			"byteOffset":142608,
			"target":34962
		},
		{
			"buffer":0,
			"byteLength":11016,
			"byteOffset":153480,
			"target":34963
		},
		{
			"buffer":0,
			"byteLength":24216,
			"byteOffset":164496,
			"target":34962
		},
		{
			"buffer":0,
			"byteLength":24216,
			"byteOffset":188712,
			"target":34962
		},
		{
			"buffer":0,
			"byteLength":24192,
			"byteOffset":212928,
			"target":34963
		},
		{
			"buffer":0,
			"byteLength":21756,
			"byteOffset":237120,
			"target":34962
		},
		{
			"buffer":0,
			"byteLength":21756,
			"byteOffset":258876,
			"target":34962
		},
		{
			"buffer":0,
			"byteLength":21732,
			"byteOffset":280632,
			"target":34963
		},
		{
			"buffer":0,
			"byteLength":89352,
			"byteOffset":302364,
			"target":34962
		},
		{
			"buffer":0,
			"byteLength":89352,
			"byteOffset":391716,
			"target":34962
		},
		{
			"buffer":0,
			"byteLength":89448,
			"byteOffset":481068,
			"target":34963
		},
		{
			"buffer":0,
			"byteLength":24096,
			"byteOffset":570516,
			"target":34962
		},
		{
			"buffer":0,
			"byteLength":24096,
			"byteOffset":594612,
			"target":34962
		},
		{
			"buffer":0,
			"byteLength":24144,
			"byteOffset":618708,
			"target":34963
		},
		{
			"buffer":0,
			"byteLength":72144,
			"byteOffset":642852,
			"target":34962
		},
		{
			"buffer":0,
			"byteLength":72144,
			"byteOffset":714996,
			"target":34962
		},
		{
			"buffer":0,
			"byteLength":72192,
			"byteOffset":787140,
			"target":34963
		}
	],
	"buffers":[
		{
			"byteLength":859332,
			"uri":"robo.bin"
		}
	]
}
