{"accessors" : [{"bufferView" : 0, "byteOffset" : 0, "componentType" : 5123, "count" : 27891, "type" : "SCALAR", "max" : [4655], "min" : [0]}, {"bufferView" : 1, "byteOffset" : 0, "componentType" : 5126, "count" : 4656, "type" : "VEC3", "max" : [0.10375917702913284, 0.1574999988079071, 0.1038222685456276], "min" : [-0.11299999803304672, -4.196050724658562E-07, -0.1038222685456276], "name" : "POSITION"}, {"bufferView" : 1, "byteOffset" : 12, "componentType" : 5126, "count" : 4656, "type" : "VEC3", "max" : [0.9997828602790833, 0.9999102354049683, 0.9999662637710571], "min" : [-0.9965523481369019, -0.997098445892334, -0.9998980760574341], "name" : "NORMAL"}, {"bufferView" : 0, "byteOffset" : 55784, "componentType" : 5123, "count" : 11616, "type" : "SCALAR", "max" : [1960], "min" : [0]}, {"bufferView" : 2, "byteOffset" : 0, "componentType" : 5126, "count" : 1961, "type" : "VEC3", "max" : [0.061994992196559906, 0.26591789722442627, 0.10756491124629974], "min" : [-0.07396506518125534, 0.004924595355987549, -0.07501909136772156], "name" : "POSITION"}, {"bufferView" : 2, "byteOffset" : 12, "componentType" : 5126, "count" : 1961, "type" : "VEC3", "max" : [0.9997447729110718, 0.9986139535903931, 0.9997699856758118], "min" : [-0.9997513294219971, -0.9724274277687073, -0.999498188495636], "name" : "NORMAL"}, {"bufferView" : 0, "byteOffset" : 79016, "componentType" : 5123, "count" : 25326, "type" : "SCALAR", "max" : [4327], "min" : [0]}, {"bufferView" : 3, "byteOffset" : 0, "componentType" : 5126, "count" : 4328, "type" : "VEC3", "max" : [0.06799399852752686, 0.11440793424844742, 0.06799811124801636], "min" : [-0.06799399852752686, -0.06799860298633575, -0.18399998545646667], "name" : "POSITION"}, {"bufferView" : 3, "byteOffset" : 12, "componentType" : 5126, "count" : 4328, "type" : "VEC3", "max" : [1.0000044107437134, 0.9993802309036255, 0.9999145269393921], "min" : [-0.9997915625572205, -1.0000044107437134, -1.0000044107437134], "name" : "NORMAL"}, {"bufferView" : 0, "byteOffset" : 129668, "componentType" : 5123, "count" : 13860, "type" : "SCALAR", "max" : [2333], "min" : [0]}, {"bufferView" : 4, "byteOffset" : 0, "componentType" : 5126, "count" : 2334, "type" : "VEC3", "max" : [0.06800000369548798, 0.28349369764328003, 0.06800000369548798], "min" : [-0.06800000369548798, -0.009999978356063366, -0.11459343135356903], "name" : "POSITION"}, {"bufferView" : 4, "byteOffset" : 12, "componentType" : 5126, "count" : 2334, "type" : "VEC3", "max" : [0.9997460246086121, 0.998619556427002, 0.9996002316474915], "min" : [-0.9997857213020325, -0.9821702837944031, -0.9997699856758118], "name" : "NORMAL"}, {"bufferView" : 0, "byteOffset" : 157388, "componentType" : 5123, "count" : 25434, "type" : "SCALAR", "max" : [4346], "min" : [0]}, {"bufferView" : 5, "byteOffset" : 0, "componentType" : 5126, "count" : 4347, "type" : "VEC3", "max" : [0.06799399852752686, 0.11440793424844742, 0.06799810379743576], "min" : [-0.06799399852752686, -0.06799860298633575, -0.18400003015995026], "name" : "POSITION"}, {"bufferView" : 5, "byteOffset" : 12, "componentType" : 5126, "count" : 4347, "type" : "VEC3", "max" : [0.9997269511222839, 0.9993802309036255, 0.9999145269393921], "min" : [-1.0000044107437134, -1.0000044107437134, -1.0000044107437134], "name" : "NORMAL"}, {"bufferView" : 0, "byteOffset" : 208256, "componentType" : 5123, "count" : 13242, "type" : "SCALAR", "max" : [2217], "min" : [0]}, {"bufferView" : 6, "byteOffset" : 0, "componentType" : 5126, "count" : 2218, "type" : "VEC3", "max" : [0.06800000369548798, 0.2667926549911499, 0.06800000369548798], "min" : [-0.06800000369548798, -0.010000001639127731, -0.09902028739452362], "name" : "POSITION"}, {"bufferView" : 6, "byteOffset" : 12, "componentType" : 5126, "count" : 2218, "type" : "VEC3", "max" : [0.9997511506080627, 0.9953063130378723, 1.0000044107437134], "min" : [-1.0000044107437134, -1.0000044107437134, -0.9999629259109497], "name" : "NORMAL"}, {"bufferView" : 0, "byteOffset" : 234740, "componentType" : 5123, "count" : 29070, "type" : "SCALAR", "max" : [4846], "min" : [0]}, {"bufferView" : 7, "byteOffset" : 0, "componentType" : 5126, "count" : 4847, "type" : "VEC3", "max" : [0.06615248322486877, 0.126909077167511, 0.08636046946048737], "min" : [-0.06614876538515091, -0.010500001721084118, -0.09090004861354828], "name" : "POSITION"}, {"bufferView" : 7, "byteOffset" : 12, "componentType" : 5126, "count" : 4847, "type" : "VEC3", "max" : [0.9993658065795898, 0.999890923500061, 0.9981052875518799], "min" : [-0.9999440312385559, -0.9997928738594055, -0.9978763461112976], "name" : "NORMAL"}, {"bufferView" : 0, "byteOffset" : 292880, "componentType" : 5123, "count" : 39216, "type" : "SCALAR", "max" : [6549], "min" : [0]}, {"bufferView" : 8, "byteOffset" : 0, "componentType" : 5126, "count" : 6550, "type" : "VEC3", "max" : [0.05193138122558594, 0.04499749466776848, 0.051869817078113556], "min" : [-0.05190405622124672, -2.5820513656071853E-06, -0.051942821592092514], "name" : "POSITION"}, {"bufferView" : 8, "byteOffset" : 12, "componentType" : 5126, "count" : 6550, "type" : "VEC3", "max" : [1.0000044107437134, 1.0000044107437134, 0.9998763799667358], "min" : [-1.0000044107437134, -1.0000044107437134, -0.9999056458473206], "name" : "NORMAL"}], "asset" : {"generator" : "Aspose.3D 24.4.1", "version" : "2.0"}, "buffers" : [{"uri" : "data:application/octet-stream;base64,", "byteLength" : 1121132}], "bufferViews" : [{"buffer" : 0, "byteOffset" : 0, "byteLength" : 371312, "target" : 34963}, {"buffer" : 0, "byteOffset" : 371316, "byteLength" : 111744, "byteStride" : 24, "target" : 34962}, {"buffer" : 0, "byteOffset" : 483064, "byteLength" : 47064, "byteStride" : 24, "target" : 34962}, {"buffer" : 0, "byteOffset" : 530132, "byteLength" : 103872, "byteStride" : 24, "target" : 34962}, {"buffer" : 0, "byteOffset" : 634008, "byteLength" : 56016, "byteStride" : 24, "target" : 34962}, {"buffer" : 0, "byteOffset" : 690028, "byteLength" : 104328, "byteStride" : 24, "target" : 34962}, {"buffer" : 0, "byteOffset" : 794360, "byteLength" : 53232, "byteStride" : 24, "target" : 34962}, {"buffer" : 0, "byteOffset" : 847596, "byteLength" : 116328, "byteStride" : 24, "target" : 34962}, {"buffer" : 0, "byteOffset" : 963928, "byteLength" : 157200, "byteStride" : 24, "target" : 34962}], "meshes" : [{"primitives" : [{"attributes" : {"POSITION" : 1, "NORMAL" : 2}, "indices" : 0, "mode" : 4}]}, {"primitives" : [{"attributes" : {"POSITION" : 4, "NORMAL" : 5}, "indices" : 3, "mode" : 4}]}, {"primitives" : [{"attributes" : {"POSITION" : 7, "NORMAL" : 8}, "indices" : 6, "mode" : 4}]}, {"primitives" : [{"attributes" : {"POSITION" : 10, "NORMAL" : 11}, "indices" : 9, "mode" : 4}]}, {"primitives" : [{"attributes" : {"POSITION" : 13, "NORMAL" : 14}, "indices" : 12, "mode" : 4}]}, {"primitives" : [{"attributes" : {"POSITION" : 16, "NORMAL" : 17}, "indices" : 15, "mode" : 4}]}, {"primitives" : [{"attributes" : {"POSITION" : 19, "NORMAL" : 20}, "indices" : 18, "mode" : 4}]}, {"primitives" : [{"attributes" : {"POSITION" : 22, "NORMAL" : 23}, "indices" : 21, "mode" : 4}]}], "nodes" : [{"mesh" : 0, "name" : "link_0"}, {"matrix" : [-1, -1.5099581673894136E-07, 0, 0, 1.5099581673894136E-07, -1, 0, 0, 0, 0, 1, 0, -0.002517579821869731, -0.001317861839197576, -0.005881771445274353, 1], "mesh" : 7, "name" : "link_7_basic"}, {"children" : [1], "matrix" : [-1, 1.5099578831723193E-07, 0, 0, -1.5099578831723193E-07, -1, 0, 0, 0, 0, 1, 0, 0.004001113586127758, 0.28331589698791504, 0.010676316916942596, 1], "mesh" : 6, "name" : "link_6"}, {"children" : [2], "matrix" : [1, 0, 0, 0, 0, -1.3435885648505064E-07, -1.0000001343588565, 0, 0, 1.0000001343588565, -1.3435885648505064E-07, 0, 0.0014309962280094624, 0, -0.17381572723388672, 1], "mesh" : 5, "name" : "link_5"}, {"children" : [3], "matrix" : [1, 0, 0, 0, 0, -1.3435885648505064E-07, 1.0000001343588565, 0, 0, -1.0000001343588565, -1.3435885648505064E-07, 0, -0.001430993783287704, 0.21400827169418335, -0.002740286523476243, 1], "mesh" : 4, "name" : "link_4"}, {"children" : [4], "matrix" : [-0.9876884548519058, -0.15643385441305568, -2.3731393739012674E-08, 0, -2.7229312138388195E-09, 1.6017716886196354E-07, -1.0000000087172147, 0, 0.15643385441305746, -0.9876884461346627, -1.7595823154081813E-07, 0, -0.0037133567966520786, 0.005957613233476877, -0.18168306350708008, 1], "mesh" : 3, "name" : "link_3"}, {"children" : [5], "matrix" : [-1.000000268717713, 4.470349461214811E-08, 4.470349461214811E-08, 0, -4.470349461214811E-08, -1.3435885648505064E-07, -1.0000001343588565, 0, -4.470349461214811E-08, -1.0000001343588565, -1.3435885648505064E-07, 0, 0.000301563210086897, 0.1985316127538681, -0.006588567979633808, 1], "mesh" : 2, "name" : "link_2"}, {"children" : [6], "matrix" : [0.9876883372503124, 0, -0.15643450086057786, 0, 0, 1, 0, 0, 0.15643450086057786, 0, 0.9876883372503124, 0, 0.005985075142234564, 0.14195574820041656, 0.0052864523604512215, 1], "mesh" : 1, "name" : "link_1"}], "scene" : 0, "scenes" : [{"nodes" : [0, 7]}]}