{
	"asset":{
		"generator":"Khronos glTF Blender I/O v4.1.63",
		"version":"2.0"
	},
	"scene":0,
	"scenes":[
		{
			"name":"Scene",
			"nodes":[
				0,
				7
			]
		}
	],
	"nodes":[
		{
			"mesh":0,
			"name":"link_0"
		},
		{
			"mesh":1,
			"name":"link_7_basic",
			"rotation":[
				-0.7071068286895752,
				0,
				0,
				0.7071068286895752
			],
			"translation":[
				0.008776777423918247,
				0.060835037380456924,
				-0.0779043436050415
			]
		},
		{
			"children":[
				1
			],
			"mesh":2,
			"name":"link_6",
			"rotation":[
				0.7071068286895752,
				0,
				0,
				0.7071068286895752
			],
			"translation":[
				0.004001124761998653,
				0.2282165288925171,
				-0.058867260813713074
			]
		},
		{
			"children":[
				2
			],
			"mesh":3,
			"name":"link_5",
			"rotation":[
				-0.7071068286895752,
				0,
				0,
				0.7071068286895752
			],
			"translation":[
				0.001430995762348175,
				0,
				-0.17381560802459717
			]
		},
		{
			"children":[
				3
			],
			"mesh":4,
			"name":"link_4",
			"rotation":[
				0.7071068286895752,
				0,
				0,
				0.7071068286895752
			],
			"translation":[
				-0.0014309933176264167,
				0.21400827169418335,
				-0.002740285824984312
			]
		},
		{
			"children":[
				4
			],
			"mesh":5,
			"name":"link_3",
			"rotation":[
				-0.05547873675823212,
				0.7049270868301392,
				-0.7049269676208496,
				0.05547873303294182
			],
			"translation":[
				-0.0037133574951440096,
				0.005957613233476877,
				-0.18168306350708008
			]
		},
		{
			"children":[
				5
			],
			"mesh":6,
			"name":"link_2",
			"rotation":[
				0,
				-0.7071068286895752,
				0.7071068286895752,
				7.513254018931548e-08
			],
			"translation":[
				0.000301563210086897,
				0.1985316127538681,
				-0.006588567979633808
			]
		},
		{
			"children":[
				6
			],
			"mesh":7,
			"name":"link_1",
			"rotation":[
				0,
				0.07845910638570786,
				0,
				0.9969174265861511
			],
			"translation":[
				0.005985075142234564,
				0.14195574820041656,
				0.0052864523604512215
			]
		}
	],
	"meshes":[
		{
			"name":"link_0",
			"primitives":[
				{
					"attributes":{
						"POSITION":0,
						"NORMAL":1
					},
					"indices":2
				}
			]
		},
		{
			"name":"link_7_basic",
			"primitives":[
				{
					"attributes":{
						"POSITION":3,
						"NORMAL":4
					},
					"indices":5
				}
			]
		},
		{
			"name":"link_6",
			"primitives":[
				{
					"attributes":{
						"POSITION":6,
						"NORMAL":7
					},
					"indices":8
				}
			]
		},
		{
			"name":"link_5",
			"primitives":[
				{
					"attributes":{
						"POSITION":9,
						"NORMAL":10
					},
					"indices":11
				}
			]
		},
		{
			"name":"link_4",
			"primitives":[
				{
					"attributes":{
						"POSITION":12,
						"NORMAL":13
					},
					"indices":14
				}
			]
		},
		{
			"name":"link_3",
			"primitives":[
				{
					"attributes":{
						"POSITION":15,
						"NORMAL":16
					},
					"indices":17
				}
			]
		},
		{
			"name":"link_2",
			"primitives":[
				{
					"attributes":{
						"POSITION":18,
						"NORMAL":19
					},
					"indices":20
				}
			]
		},
		{
			"name":"link_1",
			"primitives":[
				{
					"attributes":{
						"POSITION":21,
						"NORMAL":22
					},
					"indices":23
				}
			]
		}
	],
	"accessors":[
		{
			"bufferView":0,
			"componentType":5126,
			"count":4656,
			"max":[
				0.10375917702913284,
				0.1574999988079071,
				0.1038222685456276
			],
			"min":[
				-0.11299999803304672,
				-4.196050724658562e-07,
				-0.1038222685456276
			],
			"type":"VEC3"
		},
		{
			"bufferView":1,
			"componentType":5126,
			"count":4656,
			"type":"VEC3"
		},
		{
			"bufferView":2,
			"componentType":5123,
			"count":27891,
			"type":"SCALAR"
		},
		{
			"bufferView":3,
			"componentType":5126,
			"count":6550,
			"max":[
				0.05193138122558594,
				0.04499749466776848,
				0.051869817078113556
			],
			"min":[
				-0.05190405622124672,
				-2.5820513656071853e-06,
				-0.051942821592092514
			],
			"type":"VEC3"
		},
		{
			"bufferView":4,
			"componentType":5126,
			"count":6550,
			"type":"VEC3"
		},
		{
			"bufferView":5,
			"componentType":5123,
			"count":39216,
			"type":"SCALAR"
		},
		{
			"bufferView":6,
			"componentType":5126,
			"count":4847,
			"max":[
				0.06615248322486877,
				0.126909077167511,
				0.08636046946048737
			],
			"min":[
				-0.06614876538515091,
				-0.010500001721084118,
				-0.09090004861354828
			],
			"type":"VEC3"
		},
		{
			"bufferView":7,
			"componentType":5126,
			"count":4847,
			"type":"VEC3"
		},
		{
			"bufferView":8,
			"componentType":5123,
			"count":29070,
			"type":"SCALAR"
		},
		{
			"bufferView":9,
			"componentType":5126,
			"count":2218,
			"max":[
				0.06800000369548798,
				0.2667926549911499,
				0.06800000369548798
			],
			"min":[
				-0.06800000369548798,
				-0.010000001639127731,
				-0.09902028739452362
			],
			"type":"VEC3"
		},
		{
			"bufferView":10,
			"componentType":5126,
			"count":2218,
			"type":"VEC3"
		},
		{
			"bufferView":11,
			"componentType":5123,
			"count":13242,
			"type":"SCALAR"
		},
		{
			"bufferView":12,
			"componentType":5126,
			"count":4347,
			"max":[
				0.06799399852752686,
				0.11440793424844742,
				0.06799810379743576
			],
			"min":[
				-0.06799399852752686,
				-0.06799860298633575,
				-0.18400003015995026
			],
			"type":"VEC3"
		},
		{
			"bufferView":13,
			"componentType":5126,
			"count":4347,
			"type":"VEC3"
		},
		{
			"bufferView":14,
			"componentType":5123,
			"count":25434,
			"type":"SCALAR"
		},
		{
			"bufferView":15,
			"componentType":5126,
			"count":2334,
			"max":[
				0.06800000369548798,
				0.28349369764328003,
				0.06800000369548798
			],
			"min":[
				-0.06800000369548798,
				-0.009999978356063366,
				-0.11459343135356903
			],
			"type":"VEC3"
		},
		{
			"bufferView":16,
			"componentType":5126,
			"count":2334,
			"type":"VEC3"
		},
		{
			"bufferView":17,
			"componentType":5123,
			"count":13860,
			"type":"SCALAR"
		},
		{
			"bufferView":18,
			"componentType":5126,
			"count":4328,
			"max":[
				0.06799399852752686,
				0.11440793424844742,
				0.06799811124801636
			],
			"min":[
				-0.06799399852752686,
				-0.06799860298633575,
				-0.18399998545646667
			],
			"type":"VEC3"
		},
		{
			"bufferView":19,
			"componentType":5126,
			"count":4328,
			"type":"VEC3"
		},
		{
			"bufferView":20,
			"componentType":5123,
			"count":25326,
			"type":"SCALAR"
		},
		{
			"bufferView":21,
			"componentType":5126,
			"count":1961,
			"max":[
				0.061994992196559906,
				0.26591789722442627,
				0.10756491124629974
			],
			"min":[
				-0.07396506518125534,
				0.004924595355987549,
				-0.07501909136772156
			],
			"type":"VEC3"
		},
		{
			"bufferView":22,
			"componentType":5126,
			"count":1961,
			"type":"VEC3"
		},
		{
			"bufferView":23,
			"componentType":5123,
			"count":11616,
			"type":"SCALAR"
		}
	],
	"bufferViews":[
		{
			"buffer":0,
			"byteLength":55872,
			"byteOffset":0,
			"target":34962
		},
		{
			"buffer":0,
			"byteLength":55872,
			"byteOffset":55872,
			"target":34962
		},
		{
			"buffer":0,
			"byteLength":55782,
			"byteOffset":111744,
			"target":34963
		},
		{
			"buffer":0,
			"byteLength":78600,
			"byteOffset":167528,
			"target":34962
		},
		{
			"buffer":0,
			"byteLength":78600,
			"byteOffset":246128,
			"target":34962
		},
		{
			"buffer":0,
			"byteLength":78432,
			"byteOffset":324728,
			"target":34963
		},
		{
			"buffer":0,
			"byteLength":58164,
			"byteOffset":403160,
			"target":34962
		},
		{
			"buffer":0,
			"byteLength":58164,
			"byteOffset":461324,
			"target":34962
		},
		{
			"buffer":0,
			"byteLength":58140,
			"byteOffset":519488,
			"target":34963
		},
		{
			"buffer":0,
			"byteLength":26616,
			"byteOffset":577628,
			"target":34962
		},
		{
			"buffer":0,
			"byteLength":26616,
			"byteOffset":604244,
			"target":34962
		},
		{
			"buffer":0,
			"byteLength":26484,
			"byteOffset":630860,
			"target":34963
		},
		{
			"buffer":0,
			"byteLength":52164,
			"byteOffset":657344,
			"target":34962
		},
		{
			"buffer":0,
			"byteLength":52164,
			"byteOffset":709508,
			"target":34962
		},
		{
			"buffer":0,
			"byteLength":50868,
			"byteOffset":761672,
			"target":34963
		},
		{
			"buffer":0,
			"byteLength":28008,
			"byteOffset":812540,
			"target":34962
		},
		{
			"buffer":0,
			"byteLength":28008,
			"byteOffset":840548,
			"target":34962
		},
		{
			"buffer":0,
			"byteLength":27720,
			"byteOffset":868556,
			"target":34963
		},
		{
			"buffer":0,
			"byteLength":51936,
			"byteOffset":896276,
			"target":34962
		},
		{
			"buffer":0,
			"byteLength":51936,
			"byteOffset":948212,
			"target":34962
		},
		{
			"buffer":0,
			"byteLength":50652,
			"byteOffset":1000148,
			"target":34963
		},
		{
			"buffer":0,
			"byteLength":23532,
			"byteOffset":1050800,
			"target":34962
		},
		{
			"buffer":0,
			"byteLength":23532,
			"byteOffset":1074332,
			"target":34962
		},
		{
			"buffer":0,
			"byteLength":23232,
			"byteOffset":1097864,
			"target":34963
		}
	],
	"buffers":[
		{
			"byteLength":1121096,
			"uri":"robot3.bin"
		}
	]
}
